<?xml version="1.0" encoding="UTF-8" standalone="no"?>
<!-- Created with Inkscape (http://www.inkscape.org/) -->

<svg
   version="1.1"
   id="svg1"
   width="1007.5445"
   height="255.52054"
   viewBox="0 0 1007.5445 255.52054"
   sodipodi:docname="Changan Auto 2020.svg"
   xml:space="preserve"
   inkscape:version="1.4 (86a8ad7, 2024-10-11)"
   xmlns:inkscape="http://www.inkscape.org/namespaces/inkscape"
   xmlns:sodipodi="http://sodipodi.sourceforge.net/DTD/sodipodi-0.dtd"
   xmlns="http://www.w3.org/2000/svg"
   xmlns:svg="http://www.w3.org/2000/svg"><defs
     id="defs1"><clipPath
       id="clipPath3"><path
         transform="translate(-32.383 -561.29)"
         d="M 0,595.276 H 841.89 V 0 H 0 Z"
         id="path1-0" /></clipPath><clipPath
       id="clipPath5"><path
         transform="translate(-46.867 -545.6)"
         d="M 0,595.276 H 841.89 V 0 H 0 Z"
         id="path2" /></clipPath><clipPath
       id="clipPath7"><path
         transform="translate(-67.34 -538.83)"
         d="M 0,595.276 H 841.89 V 0 H 0 Z"
         id="path3" /></clipPath><clipPath
       id="clipPath9"><path
         transform="translate(-93.552 -552.11)"
         d="M 0,595.276 H 841.89 V 0 H 0 Z"
         id="path4" /></clipPath><clipPath
       id="clipPath11"><path
         transform="translate(-96.308 -538.83)"
         d="M 0,595.276 H 841.89 V 0 H 0 Z"
         id="path5" /></clipPath><clipPath
       id="clipPath13"><path
         transform="translate(-127.07 -539.51)"
         d="M 0,595.276 H 841.89 V 0 H 0 Z"
         id="path6" /></clipPath><clipPath
       id="clipPath15"><path
         transform="translate(-151.42 -538.83)"
         d="M 0,595.276 H 841.89 V 0 H 0 Z"
         id="path7" /></clipPath><clipPath
       id="clipPath17"><path
         transform="translate(-154.94 -538.83)"
         d="M 0,595.276 H 841.89 V 0 H 0 Z"
         id="path8" /></clipPath><clipPath
       id="clipPath19"><path
         transform="translate(-185.7 -539.51)"
         d="M 0,595.276 H 841.89 V 0 H 0 Z"
         id="path9" /></clipPath><clipPath
       id="clipPath21"><path
         transform="translate(-198.68 -538.83)"
         d="M 0,595.276 H 841.89 V 0 H 0 Z"
         id="path10" /></clipPath><clipPath
       id="clipPath23"><path
         transform="translate(-233.15 -552.11)"
         d="M 0,595.276 H 841.89 V 0 H 0 Z"
         id="path11" /></clipPath><clipPath
       id="clipPath25"><path
         transform="translate(-236.33 -552.11)"
         d="M 0,595.276 H 841.89 V 0 H 0 Z"
         id="path12" /></clipPath><clipPath
       id="clipPath27"><path
         transform="translate(-258.34 -545.49)"
         d="M 0,595.276 H 841.89 V 0 H 0 Z"
         id="path13" /></clipPath><clipPath
       id="clipPath116"><path
         transform="translate(-452.07 -354.68)"
         d="m0 0h807.87v548.22h-807.87z"
         id="path1" /></clipPath><clipPath
       id="clipPath118"><path
         transform="translate(-458.89 -347.29)"
         d="m0 0h807.87v548.22h-807.87z"
         id="path2-9" /></clipPath><clipPath
       id="clipPath120"><path
         transform="translate(-441.46 -335.39)"
         d="m0 0h807.87v548.22h-807.87z"
         id="path3-4" /></clipPath><clipPath
       id="clipPath122"><path
         transform="translate(-448.52 -333.05)"
         d="m0 0h807.87v548.22h-807.87z"
         id="path4-8" /></clipPath><clipPath
       id="clipPath124"><path
         d="m0 0h807.87v548.22h-807.87z"
         id="path5-8" /></clipPath><clipPath
       id="clipPath126"><path
         transform="translate(-466.65 -332.78)"
         d="m0 0h807.87v548.22h-807.87z"
         id="path6-2" /></clipPath></defs><sodipodi:namedview
     id="namedview1"
     pagecolor="#ffffff"
     bordercolor="#000000"
     borderopacity="0.25"
     inkscape:showpageshadow="2"
     inkscape:pageopacity="0.0"
     inkscape:pagecheckerboard="0"
     inkscape:deskcolor="#d1d1d1"
     inkscape:zoom="0.71063861"
     inkscape:cx="538.95186"
     inkscape:cy="159.7155"
     inkscape:window-width="1366"
     inkscape:window-height="705"
     inkscape:window-x="-8"
     inkscape:window-y="-8"
     inkscape:window-maximized="1"
     inkscape:current-layer="layer1" /><g
     id="layer1"
     transform="matrix(3.7795276,0,0,3.7795276,112.03929,137.21107)"
     style="fill:#0b457f;fill-opacity:1"><path
       transform="matrix(2.1956473,0,0,-2.1956473,9.3236833,-36.303762)"
       d="m 0,0 c -14.695,0 -18.557,-5.349 -17.614,-15.859 0.943,-10.533 4.769,-15.099 17.614,-15.099 12.845,0 16.675,4.566 17.617,15.099 C 18.557,-5.353 14.698,0 0,0 m 14.411,-4.863 c 2.107,-2.32 2.877,-5.793 2.417,-10.928 -0.486,-5.447 -1.749,-8.833 -4.091,-10.979 -2.521,-2.313 -6.569,-3.389 -12.737,-3.389 -6.165,0 -10.213,1.076 -12.734,3.389 -2.342,2.146 -3.605,5.532 -4.091,10.979 -0.46,5.138 0.31,8.612 2.414,10.931 2.486,2.733 7.046,4.064 14.411,4.064 7.365,0 11.925,-1.331 14.411,-4.067"
       clip-path="url(#clipPath3)"
       style="display:inline;fill:#0b467f;stroke-width:1.08393"
       id="path14" /><path
       transform="matrix(2.1956473,0,0,-2.1956473,41.124565,-1.8439382)"
       d="m 0,0 c -0.424,-4.687 -1.487,-7.581 -3.451,-9.375 -1.931,-1.767 -4.994,-2.681 -9.554,-2.844 -0.111,-0.003 -0.183,0.114 -0.13,0.206 l 5.851,10.747 c 0.692,1.266 1.051,2.682 1.051,4.12 v 8.651 c 0,0.097 0.091,0.163 0.186,0.133 1.764,-0.561 3.115,-1.36 4.064,-2.397 C -0.235,7.329 0.395,4.394 0,0 m -28.965,0 c -0.395,4.394 0.235,7.329 1.986,9.241 0.949,1.037 2.3,1.836 4.065,2.397 0.088,0.03 0.182,-0.036 0.182,-0.133 V 2.854 c 0,-1.438 0.362,-2.854 1.051,-4.12 l 5.851,-10.744 c 0.052,-0.095 -0.019,-0.212 -0.13,-0.209 -4.564,0.163 -7.62,1.077 -9.554,2.844 -1.964,1.794 -3.027,4.688 -3.451,9.375 m 21.15,11.929 c -2.577,-6.436 -5.425,-12.421 -6.354,-14.346 -0.128,-0.261 -0.5,-0.261 -0.627,0 -0.929,1.925 -3.777,7.91 -6.354,14.346 -0.032,0.081 0.017,0.172 0.101,0.192 1.837,0.369 4.019,0.558 6.566,0.558 2.548,0 4.727,-0.189 6.566,-0.558 0.089,-0.02 0.134,-0.111 0.102,-0.192 m -6.668,2.169 c -13.2,0 -16.749,-4.753 -15.895,-14.225 0.848,-9.446 4.309,-13.537 15.895,-13.537 11.583,0 15.044,4.091 15.895,13.537 0.852,9.472 -2.694,14.225 -15.895,14.225"
       clip-path="url(#clipPath5)"
       style="display:inline;fill:#0b467f;stroke-width:1.08393"
       id="path15" /><g
       id="g1"
       transform="matrix(0.34503426,0,0,0.34503426,96.629186,28.477581)"
       style="display:inline;stroke-width:2.89826"><path
         transform="matrix(2.3799271,0,0,-2.3799271,-78.360804,-14.926647)"
         d="m 0,0 c -4.909,0 -7.832,1.664 -7.832,6.742 0,4.612 2.923,6.534 7.959,6.534 H 6.403 V 9.841 H 0.427 c -2.348,0 -3.115,-0.665 -3.115,-3.099 0,-2.665 0.767,-3.304 3.223,-3.304 H 6.403 V 0 Z"
         clip-path="url(#clipPath7)"
         style="fill:#0b467f;stroke-width:2.89826"
         id="path16" /><path
         transform="matrix(2.3799271,0,0,-2.3799271,-15.977346,-46.523797)"
         d="m 0,0 v -13.276 h -4.994 v 4.994 h -5.529 v -4.994 h -4.994 V 0 h 4.994 v -4.717 h 5.529 V 0 Z"
         clip-path="url(#clipPath9)"
         style="fill:#0b467f;stroke-width:2.89826"
         id="path17" /><path
         transform="matrix(2.3799271,0,0,-2.3799271,-9.4183256,-14.926647)"
         d="m 0,0 5.464,13.276 h 4.527 c 1.171,0 1.641,-0.408 1.96,-1.152 L 17.203,0 H 11.867 L 8.474,8.151 c -0.238,0.578 -0.577,0.578 -0.812,0 L 4.309,0 Z"
         clip-path="url(#clipPath11)"
         style="fill:#0b467f;stroke-width:2.89826"
         id="path18" /><path
         transform="matrix(2.3799271,0,0,-2.3799271,63.782621,-16.548543)"
         d="m 0,0 -6.299,5.806 c -0.254,0.238 -0.427,0.17 -0.427,-0.189 v -6.299 h -4.162 v 13.276 h 2.629 c 0.936,0 1.598,-0.192 2.048,-0.597 L 0.32,5.976 C 0.577,5.744 0.747,5.91 0.747,6.188 v 6.406 H 4.909 V -0.042 c 0,-0.405 -0.235,-0.64 -0.639,-0.64 H 2.071 C 1.282,-0.682 0.532,-0.489 0,0"
         clip-path="url(#clipPath13)"
         style="fill:#0b467f;stroke-width:2.89826"
         id="path19" /><path
         transform="matrix(2.3799271,0,0,-2.3799271,121.74621,-14.926647)"
         d="m 0,0 h -7.577 c -5.252,0 -7.962,1.686 -7.962,6.765 0,4.524 2.753,6.511 8.089,6.511 H 0.639 V 9.857 h -7.877 c -2.515,0 -3.177,-0.616 -3.177,-3.092 0,-2.753 0.662,-3.415 3.285,-3.415 h 2.945 c 0.212,0 0.343,0.127 0.343,0.342 v 1.152 c 0,0.215 -0.131,0.342 -0.343,0.342 H -6.553 V 8.047 H 0 c 0.404,0 0.639,-0.235 0.639,-0.639 V 0.639 C 0.639,0.235 0.404,0 0,0"
         clip-path="url(#clipPath15)"
         style="fill:#0b467f;stroke-width:2.89826"
         id="path20" /><path
         transform="matrix(2.3799271,0,0,-2.3799271,130.13086,-14.926647)"
         d="m 0,0 5.464,13.276 h 4.527 c 1.171,0 1.641,-0.408 1.96,-1.152 L 17.2,0 H 11.867 L 8.474,8.151 c -0.238,0.578 -0.577,0.578 -0.812,0 L 4.309,0 Z"
         clip-path="url(#clipPath17)"
         style="fill:#0b467f;stroke-width:2.89826"
         id="path21" /><path
         transform="matrix(2.3799271,0,0,-2.3799271,203.33313,-16.548543)"
         d="m 0,0 -6.299,5.806 c -0.254,0.238 -0.427,0.17 -0.427,-0.189 v -6.299 h -4.162 v 13.276 h 2.626 c 0.939,0 1.601,-0.192 2.051,-0.597 L 0.32,5.976 C 0.574,5.744 0.747,5.91 0.747,6.188 v 6.406 H 4.909 V -0.042 c 0,-0.405 -0.235,-0.64 -0.639,-0.64 H 2.071 C 1.282,-0.682 0.532,-0.489 0,0"
         clip-path="url(#clipPath19)"
         style="fill:#0b467f;stroke-width:2.89826"
         id="path22" /><path
         transform="matrix(2.3799271,0,0,-2.3799271,234.21794,-14.926647)"
         d="m 0,0 5.467,13.276 h 4.524 c 1.174,0 1.641,-0.408 1.964,-1.152 L 17.203,0 H 11.87 L 8.474,8.151 C 8.239,8.729 7.9,8.729 7.665,8.151 L 4.312,0 Z"
         clip-path="url(#clipPath21)"
         style="fill:#0b467f;stroke-width:2.89826"
         id="path23" /><path
         transform="matrix(2.3799271,0,0,-2.3799271,316.2573,-46.523797)"
         d="m 0,0 v -7.643 c 0,-4.759 -3.096,-6.06 -7.77,-6.06 -4.671,0 -7.769,1.301 -7.769,6.06 V 0 h 4.951 v -6.98 c 0,-2.691 1.412,-3.308 3.223,-3.308 1.817,0 3.222,0.617 3.222,3.308 V 0 Z"
         clip-path="url(#clipPath23)"
         style="fill:#0b467f;stroke-width:2.89826"
         id="path24" /><path
         transform="matrix(2.3799271,0,0,-2.3799271,323.82438,-46.523797)"
         d="M 0,0 H 14.939 V -3.565 H 9.968 v -9.711 H 4.971 v 9.711 H 0 Z"
         clip-path="url(#clipPath25)"
         style="fill:#0b467f;stroke-width:2.89826"
         id="path25" /><path
         transform="matrix(2.3799271,0,0,-2.3799271,376.21188,-30.770691)"
         d="m 0,0 c 0,-2.626 0.917,-3.67 3.777,-3.67 2.861,0 3.777,1.044 3.777,3.67 0,2.629 -0.916,3.63 -3.777,3.63 C 0.917,3.63 0,2.629 0,0 m 12.702,0 c 0,-4.971 -2.972,-7.085 -8.925,-7.085 -5.848,0 -8.921,2.114 -8.921,7.085 0,4.994 3.073,7.046 8.921,7.046 5.953,0 8.925,-2.052 8.925,-7.046"
         clip-path="url(#clipPath27)"
         style="fill:#0b467f;stroke-width:2.89826"
         id="path26" /></g><g
       id="g2"
       transform="matrix(0.38020056,0,0,0.38020056,88.879283,-52.175599)"
       style="stroke-width:2.63019"><path
         transform="matrix(15.67815,0,0,-15.67815,-5.5749128,91.515243)"
         d="m 0,0 h -1.067 c 0.827,0.699 1.51,1.202 2.089,1.6 H 2.321 V 1.488 C 1.683,1.18 0.714,0.594 0,0 m 2.652,-0.992 h -2.75 c 0.556,-0.961 1.322,-1.645 2.75,-2.171 v -0.691 c -1.766,0.406 -2.81,1.367 -3.726,2.862 h -0.955 v -2.103 c 0,-0.098 0.053,-0.15 0.151,-0.15 h 1.014 v -0.579 h -1.6 c -0.338,0 -0.526,0.188 -0.526,0.526 v 2.306 h -0.969 v 0.579 h 0.969 v 2.096 h 0.961 v -2.096 h 4.681 z"
         clip-path="url(#clipPath120)"
         style="fill:#0a4580;stroke-width:2.63019"
         id="path9-5" /><path
         transform="matrix(15.67815,0,0,-15.67815,105.13125,128.26322)"
         d="M 0,0 C 0.549,0.331 0.939,0.774 1.165,1.352 H -1.007 C -1.187,1.119 -1.352,0.909 -1.472,0.744 -1.54,0.654 -1.533,0.586 -1.45,0.549 -1.142,0.398 -0.616,0.195 0,0 m -2.344,2.381 h -0.961 v 1.285 h 2.569 V 4.147 H 0.301 V 3.666 h 2.148 c 0.338,0 0.526,-0.188 0.526,-0.526 V 2.381 H 2.014 v 0.571 c 0,0.098 -0.053,0.151 -0.151,0.151 H -2.344 Z M 0.887,-0.278 C 1.683,-0.511 2.509,-0.714 3.125,-0.819 V -1.51 C 2.276,-1.383 1.165,-1.105 0.098,-0.744 -0.841,-1.18 -2.036,-1.398 -3.486,-1.51 v 0.683 c 1.022,0.06 1.893,0.196 2.607,0.429 -0.526,0.21 -1.022,0.428 -1.427,0.654 -0.241,0.135 -0.248,0.293 -0.083,0.548 0.105,0.165 0.233,0.353 0.361,0.548 h -1.458 v 0.571 h 1.856 c 0.173,0.248 0.345,0.488 0.496,0.691 h 1.066 V 2.517 C -0.218,2.344 -0.391,2.134 -0.564,1.923 H 3.125 V 1.352 H 2.126 C 1.841,0.661 1.428,0.128 0.887,-0.278"
         clip-path="url(#clipPath122)"
         style="fill:#0a4580;stroke-width:2.63019"
         id="path10-1" /><path
         transform="matrix(15.67815,0,0,-15.67815,-6926.7422,5349.8814)"
         d="m 455.35,335.64 h 3.388 v -0.534 h -3.388 z m 3.787,-3.463 v -0.646 c -1.014,0.15 -1.488,0.54 -1.488,1.487 v 0.947 c 0,0.097 -0.052,0.15 -0.15,0.15 l -2.802,-0.008 v 0.556 h 3.343 c 0.338,0 0.526,-0.188 0.526,-0.526 v -0.954 c 0,-0.623 0.188,-0.894 0.571,-1.006 m -4.027,3.298 h -0.917 c 0.293,0.586 0.631,1.217 0.909,1.675 h 1.015 v -0.105 c -0.105,-0.135 -0.203,-0.278 -0.308,-0.428 h 3.238 v -0.549 h -3.591 c -0.121,-0.203 -0.241,-0.398 -0.346,-0.593 m -1.052,-1.052 c 0.113,-0.233 0.113,-0.504 0.053,-0.751 -0.143,-0.601 -0.346,-1.308 -0.624,-2.119 h -0.939 c 0.338,0.819 0.624,1.675 0.744,2.156 0.045,0.165 0.045,0.346 -0.038,0.511 -0.15,0.285 -0.465,0.759 -0.728,1.074 v 0.098 h 0.954 c 0.218,-0.308 0.428,-0.661 0.578,-0.969 m -0.571,2.584 c 0.233,-0.315 0.458,-0.706 0.676,-1.157 h -0.894 c -0.21,0.376 -0.42,0.684 -0.743,1.052 v 0.105 z"
         clip-path="url(#clipPath124)"
         style="fill:#0a4580;stroke-width:2.63019"
         id="path11-7" /><path
         transform="matrix(15.67815,0,0,-15.67815,389.35725,132.38808)"
         d="M 0,0 H -2.577 V -1.247 H -3.538 V 0 h -3.073 v 0.564 h 3.073 V 1.36 h -2.247 c -0.436,0 -0.571,0.278 -0.338,0.638 0.271,0.414 0.556,0.834 0.849,1.255 h -1.262 v 0.556 h 1.653 c 0.135,0.188 0.27,0.375 0.413,0.563 h 1.059 V 4.26 L -3.756,3.809 h 3.681 V 3.253 H -4.162 C -4.448,2.862 -4.718,2.472 -4.981,2.081 c -0.068,-0.098 -0.03,-0.18 0.09,-0.18 h 1.353 v 0.916 h 0.961 V 1.901 h 2.224 V 1.36 H -2.577 V 0.564 H 0 Z"
         clip-path="url(#clipPath126)"
         style="fill:#0a4580;stroke-width:2.63019"
         id="path12-1" /></g></g></svg>
